<?xml version="1.0" encoding="utf-8"?>
<!-- Generator: Adobe Illustrator 18.1.0, SVG Export Plug-In . SVG Version: 6.00 Build 0)  -->
<svg version="1.1" id="Layer_1" xmlns="http://www.w3.org/2000/svg" xmlns:xlink="http://www.w3.org/1999/xlink" x="0px" y="0px"
	 viewBox="-995 -79.1 1000 1000" enable-background="new -995 -79.1 1000 1000" xml:space="preserve">
<path fill="#FFFFFF" stroke="#FFFFFF" stroke-miterlimit="10" d="M-423.8,286.2c-56.7-56.8-149.1-56.8-205.8,0
	c-56.7,56.7-56.7,149.1,0,205.8c54.8,54.8,142.8,56.7,199.9,5.6l11.5,11.5c-2.9,7.4-1.4,16,4.6,22l60.9,60.9c8,8,21,8,29,0
	c8-8,8-21,0-29l-60.9-60.9c-5.9-5.9-14.6-7.4-22-4.6l-11.5-11.5C-367.1,429-369,341-423.8,286.2z M-612.3,474.7
	c-47.2-47.2-47.2-123.9,0-171c47.2-47.2,123.9-47.2,171.1,0s47.2,123.9,0,171.1C-488.4,521.9-565.1,521.8-612.3,474.7z"/>
<g display="none">
	<path display="inline" fill="#262A33" d="M-495-69.1c66.2,0,130.3,13,190.7,38.5c58.3,24.7,110.8,60,155.8,105s80.3,97.4,105,155.8
		C-18,290.6-5,354.7-5,420.9s-13,130.3-38.5,190.7c-24.7,58.3-60,110.8-105,155.8s-97.4,80.3-155.8,105
		c-60.4,25.5-124.6,38.5-190.7,38.5s-130.3-13-190.7-38.5c-58.3-24.7-110.8-60-155.8-105s-80.3-97.4-105-155.8
		C-972,551.2-985,487-985,420.9s13-130.3,38.5-190.7c24.7-58.3,60-110.8,105-155.8s97.4-80.3,155.8-105
		C-625.3-56.2-561.2-69.1-495-69.1 M-495-79.1c-276.1,0-500,223.9-500,500s223.9,500,500,500S5,697,5,420.9S-218.9-79.1-495-79.1
		L-495-79.1z"/>
</g>
<g id="Layer_2" display="none">
	<path display="inline" fill="#FFFFFF" d="M-765.9,585.3l108.9-139c9.4,6.5,20.7,10.5,33.1,10.5c15.3,0,29.1-5.9,39.4-15.5
		l74.1,73.6c-6.5,9-10.3,20-10.3,31.7c0,30.7,25.6,55.7,57.2,55.7s57.2-25,57.2-55.7c0-16.8-7.9-31.7-20-41.9L-320,324.6
		c7.5,3.5,15.8,5.6,24.6,5.6c31.5,0,57.2-25,57.2-55.7c0-30.7-25.6-55.7-57.2-55.7c-31.5,0-57.2,25-57.2,55.7
		c0,17.5,8.5,33,21.5,43.2l-106.1,179.8c-7.9-4-16.8-6.5-26.4-6.5c-14.7,0-27.9,5.5-38.1,14.5l-74.5-74c5.8-8.7,9.3-19.1,9.3-30.3
		c0-30.7-25.6-55.7-57.1-55.7c-31.5,0-57.2,25-57.2,55.7c0,14.1,5.6,26.8,14.4,36.6l-109.7,139.9L-765.9,585.3z M-295.4,244.3
		c17.1,0,31,13.6,31,30.2c0,16.7-13.9,30.3-31,30.3c-17.1,0-31.1-13.6-31.1-30.3C-326.4,257.8-312.5,244.3-295.4,244.3z
		 M-463.5,516.4c17.1,0,31.1,13.6,31.1,30.2c0,16.7-13.9,30.2-31.1,30.2c-17.1,0-31.1-13.5-31.1-30.2
		C-494.5,530-480.6,516.4-463.5,516.4z M-623.9,370.9c17.1,0,31,13.6,31,30.3c0,16.7-13.9,30.3-31,30.3c-17.1,0-31.1-13.6-31.1-30.3
		C-654.9,384.5-641,370.9-623.9,370.9z"/>
</g>
</svg>
